<svg width="130" height="132" viewBox="0 0 130 132" fill="none" xmlns="http://www.w3.org/2000/svg">
<rect width="130" height="132" fill="#F5F5F5"/>
<rect width="390" height="844" transform="translate(-202 -415)" fill="black"/>
<rect x="0.5" y="0.5" width="129" height="131" rx="4.5" fill="black" stroke="#BFBFBF"/>
<path d="M23 24V22H14V19L9 23L14 27V24H23Z" fill="#F8F8F8"/>
<path d="M27 14H18C16.897 14 16 14.897 16 16V20H18V16H27V30H18V26H16V30C16 31.103 16.897 32 18 32H27C28.103 32 29 31.103 29 30V16C29 14.897 28.103 14 27 14Z" fill="#F8F8F8"/>
<path d="M11.4091 117V105.364H12.8182V115.75H18.2273V117H11.4091ZM23.7727 117.182C22.9848 117.182 22.2936 116.994 21.6989 116.619C21.108 116.244 20.6458 115.72 20.3125 115.045C19.983 114.371 19.8182 113.583 19.8182 112.682C19.8182 111.773 19.983 110.979 20.3125 110.301C20.6458 109.623 21.108 109.097 21.6989 108.722C22.2936 108.347 22.9848 108.159 23.7727 108.159C24.5606 108.159 25.25 108.347 25.8409 108.722C26.4356 109.097 26.8977 109.623 27.2273 110.301C27.5606 110.979 27.7273 111.773 27.7273 112.682C27.7273 113.583 27.5606 114.371 27.2273 115.045C26.8977 115.72 26.4356 116.244 25.8409 116.619C25.25 116.994 24.5606 117.182 23.7727 117.182ZM23.7727 115.977C24.3712 115.977 24.8636 115.824 25.25 115.517C25.6364 115.21 25.9223 114.807 26.108 114.307C26.2936 113.807 26.3864 113.265 26.3864 112.682C26.3864 112.098 26.2936 111.555 26.108 111.051C25.9223 110.547 25.6364 110.14 25.25 109.83C24.8636 109.519 24.3712 109.364 23.7727 109.364C23.1742 109.364 22.6818 109.519 22.2955 109.83C21.9091 110.14 21.6231 110.547 21.4375 111.051C21.2519 111.555 21.1591 112.098 21.1591 112.682C21.1591 113.265 21.2519 113.807 21.4375 114.307C21.6231 114.807 21.9091 115.21 22.2955 115.517C22.6818 115.824 23.1742 115.977 23.7727 115.977ZM33.2969 120.455C32.6491 120.455 32.0923 120.371 31.6264 120.205C31.1605 120.042 30.7723 119.826 30.4616 119.557C30.1548 119.292 29.9105 119.008 29.7287 118.705L30.7969 117.955C30.9181 118.114 31.0715 118.295 31.2571 118.5C31.4427 118.708 31.6965 118.888 32.0185 119.04C32.3442 119.195 32.7704 119.273 33.2969 119.273C34.0014 119.273 34.5829 119.102 35.0412 118.761C35.4995 118.42 35.7287 117.886 35.7287 117.159V115.386H35.6151C35.5166 115.545 35.3764 115.742 35.1946 115.977C35.0166 116.208 34.759 116.415 34.4219 116.597C34.0885 116.775 33.6378 116.864 33.0696 116.864C32.3651 116.864 31.7325 116.697 31.1719 116.364C30.6151 116.03 30.1738 115.545 29.848 114.909C29.526 114.273 29.3651 113.5 29.3651 112.591C29.3651 111.697 29.5223 110.919 29.8366 110.256C30.151 109.589 30.5885 109.074 31.1491 108.71C31.7098 108.343 32.3575 108.159 33.0923 108.159C33.6605 108.159 34.1113 108.254 34.4446 108.443C34.7817 108.629 35.0393 108.841 35.2173 109.08C35.3991 109.314 35.5393 109.508 35.6378 109.659H35.7741V108.273H37.0696V117.25C37.0696 118 36.8991 118.61 36.5582 119.08C36.2211 119.553 35.7666 119.9 35.1946 120.119C34.6264 120.343 33.9938 120.455 33.2969 120.455ZM33.2514 115.659C33.7893 115.659 34.2438 115.536 34.6151 115.29C34.9863 115.044 35.2685 114.689 35.4616 114.227C35.6548 113.765 35.7514 113.212 35.7514 112.568C35.7514 111.939 35.6567 111.384 35.4673 110.903C35.2779 110.422 34.9976 110.045 34.6264 109.773C34.2552 109.5 33.7969 109.364 33.2514 109.364C32.6832 109.364 32.2098 109.508 31.831 109.795C31.456 110.083 31.1738 110.47 30.9844 110.955C30.7988 111.439 30.706 111.977 30.706 112.568C30.706 113.174 30.8007 113.71 30.9901 114.176C31.1832 114.638 31.4673 115.002 31.8423 115.267C32.2211 115.528 32.6908 115.659 33.2514 115.659ZM43.0696 117.182C42.2817 117.182 41.5904 116.994 40.9957 116.619C40.4048 116.244 39.9427 115.72 39.6094 115.045C39.2798 114.371 39.1151 113.583 39.1151 112.682C39.1151 111.773 39.2798 110.979 39.6094 110.301C39.9427 109.623 40.4048 109.097 40.9957 108.722C41.5904 108.347 42.2817 108.159 43.0696 108.159C43.8575 108.159 44.5469 108.347 45.1378 108.722C45.7325 109.097 46.1946 109.623 46.5241 110.301C46.8575 110.979 47.0241 111.773 47.0241 112.682C47.0241 113.583 46.8575 114.371 46.5241 115.045C46.1946 115.72 45.7325 116.244 45.1378 116.619C44.5469 116.994 43.8575 117.182 43.0696 117.182ZM43.0696 115.977C43.6681 115.977 44.1605 115.824 44.5469 115.517C44.9332 115.21 45.2192 114.807 45.4048 114.307C45.5904 113.807 45.6832 113.265 45.6832 112.682C45.6832 112.098 45.5904 111.555 45.4048 111.051C45.2192 110.547 44.9332 110.14 44.5469 109.83C44.1605 109.519 43.6681 109.364 43.0696 109.364C42.4711 109.364 41.9787 109.519 41.5923 109.83C41.206 110.14 40.92 110.547 40.7344 111.051C40.5488 111.555 40.456 112.098 40.456 112.682C40.456 113.265 40.5488 113.807 40.7344 114.307C40.92 114.807 41.206 115.21 41.5923 115.517C41.9787 115.824 42.4711 115.977 43.0696 115.977ZM54.571 113.432V108.273H55.9119V117H54.571V115.523H54.4801C54.2756 115.966 53.9574 116.343 53.5256 116.653C53.0938 116.96 52.5483 117.114 51.8892 117.114C51.3438 117.114 50.8589 116.994 50.4347 116.756C50.0104 116.513 49.6771 116.15 49.4347 115.665C49.1922 115.176 49.071 114.561 49.071 113.818V108.273H50.4119V113.727C50.4119 114.364 50.59 114.871 50.946 115.25C51.3059 115.629 51.7642 115.818 52.321 115.818C52.6544 115.818 52.9934 115.733 53.3381 115.562C53.6866 115.392 53.9782 115.131 54.2131 114.778C54.4517 114.426 54.571 113.977 54.571 113.432ZM62.1634 108.273V109.409H57.6406V108.273H62.1634ZM58.9588 106.182H60.2997V114.5C60.2997 114.879 60.3546 115.163 60.4645 115.352C60.5781 115.538 60.7221 115.663 60.8963 115.727C61.0743 115.788 61.2618 115.818 61.4588 115.818C61.6065 115.818 61.7277 115.811 61.8224 115.795C61.9171 115.777 61.9929 115.761 62.0497 115.75L62.3224 116.955C62.2315 116.989 62.1046 117.023 61.9418 117.057C61.7789 117.095 61.5724 117.114 61.3224 117.114C60.9437 117.114 60.5724 117.032 60.2088 116.869C59.849 116.706 59.5497 116.458 59.3111 116.125C59.0762 115.792 58.9588 115.371 58.9588 114.864V106.182Z" fill="white"/>
</svg>
