<svg width="120" height="37" viewBox="0 0 120 37" fill="none" xmlns="http://www.w3.org/2000/svg">
<rect width="120" height="37" fill="#F5F5F5"/>
<rect width="390" height="844" transform="translate(-37 -416)" fill="black"/>
<rect x="-23" y="-277" width="357" height="573" rx="5" fill="#252525"/>
<rect width="120" height="37" rx="5" fill="#479BFF"/>
<path d="M35.1193 16H33.5341C33.4403 15.544 33.2763 15.1435 33.0419 14.7983C32.8118 14.4531 32.5305 14.1634 32.1982 13.929C31.87 13.6903 31.5057 13.5114 31.1051 13.392C30.7045 13.2727 30.2869 13.2131 29.8523 13.2131C29.0597 13.2131 28.3416 13.4134 27.6982 13.8139C27.0589 14.2145 26.5497 14.8047 26.1705 15.5845C25.7955 16.3643 25.608 17.321 25.608 18.4545C25.608 19.5881 25.7955 20.5447 26.1705 21.3246C26.5497 22.1044 27.0589 22.6946 27.6982 23.0952C28.3416 23.4957 29.0597 23.696 29.8523 23.696C30.2869 23.696 30.7045 23.6364 31.1051 23.517C31.5057 23.3977 31.87 23.2209 32.1982 22.9865C32.5305 22.7479 32.8118 22.456 33.0419 22.1108C33.2763 21.7614 33.4403 21.3608 33.5341 20.9091H35.1193C35 21.5781 34.7827 22.1768 34.4673 22.7053C34.152 23.2337 33.7599 23.6832 33.2912 24.054C32.8224 24.4205 32.2962 24.6996 31.7124 24.8913C31.1328 25.0831 30.5128 25.179 29.8523 25.179C28.7358 25.179 27.7429 24.9062 26.8736 24.3608C26.0043 23.8153 25.3203 23.0398 24.8217 22.0341C24.3232 21.0284 24.0739 19.8352 24.0739 18.4545C24.0739 17.0739 24.3232 15.8807 24.8217 14.875C25.3203 13.8693 26.0043 13.0938 26.8736 12.5483C27.7429 12.0028 28.7358 11.7301 29.8523 11.7301C30.5128 11.7301 31.1328 11.826 31.7124 12.0178C32.2962 12.2095 32.8224 12.4908 33.2912 12.8615C33.7599 13.228 34.152 13.6754 34.4673 14.2038C34.7827 14.728 35 15.3267 35.1193 16ZM41.465 25.2045C40.5787 25.2045 39.801 24.9936 39.1319 24.5717C38.4672 24.1499 37.9473 23.5597 37.5723 22.8011C37.2015 22.0426 37.0162 21.1562 37.0162 20.142C37.0162 19.1193 37.2015 18.2266 37.5723 17.4638C37.9473 16.701 38.4672 16.1087 39.1319 15.6868C39.801 15.2649 40.5787 15.054 41.465 15.054C42.3514 15.054 43.127 15.2649 43.7917 15.6868C44.4608 16.1087 44.9806 16.701 45.3514 17.4638C45.7264 18.2266 45.9139 19.1193 45.9139 20.142C45.9139 21.1562 45.7264 22.0426 45.3514 22.8011C44.9806 23.5597 44.4608 24.1499 43.7917 24.5717C43.127 24.9936 42.3514 25.2045 41.465 25.2045ZM41.465 23.8494C42.1383 23.8494 42.6923 23.6768 43.127 23.3317C43.5616 22.9865 43.8833 22.5327 44.0922 21.9702C44.301 21.4077 44.4054 20.7983 44.4054 20.142C44.4054 19.4858 44.301 18.8743 44.0922 18.3075C43.8833 17.7408 43.5616 17.2827 43.127 16.9332C42.6923 16.5838 42.1383 16.4091 41.465 16.4091C40.7917 16.4091 40.2377 16.5838 39.8031 16.9332C39.3684 17.2827 39.0467 17.7408 38.8379 18.3075C38.6291 18.8743 38.5247 19.4858 38.5247 20.142C38.5247 20.7983 38.6291 21.4077 38.8379 21.9702C39.0467 22.5327 39.3684 22.9865 39.8031 23.3317C40.2377 23.6768 40.7917 23.8494 41.465 23.8494ZM48.2166 25V15.1818H49.674V16.7159H49.8018C50.0064 16.1918 50.3366 15.7848 50.7926 15.495C51.2486 15.201 51.7962 15.054 52.4354 15.054C53.0831 15.054 53.6222 15.201 54.0526 15.495C54.4872 15.7848 54.826 16.1918 55.0689 16.7159H55.1712C55.4226 16.2088 55.7997 15.8061 56.3026 15.5078C56.8054 15.2053 57.4084 15.054 58.1115 15.054C58.9893 15.054 59.7074 15.3288 60.2656 15.8786C60.8239 16.424 61.103 17.2741 61.103 18.429V25H59.5945V18.429C59.5945 17.7045 59.3963 17.1868 59 16.8757C58.6037 16.5646 58.1371 16.4091 57.6001 16.4091C56.9098 16.4091 56.375 16.6179 55.9957 17.0355C55.6165 17.4489 55.4268 17.973 55.4268 18.608V25H53.8928V18.2756C53.8928 17.7173 53.7116 17.2678 53.3494 16.9268C52.9872 16.5817 52.5206 16.4091 51.9496 16.4091C51.5575 16.4091 51.1911 16.5135 50.8501 16.7223C50.5135 16.9311 50.2408 17.2209 50.032 17.5916C49.8274 17.9581 49.7251 18.3821 49.7251 18.8636V25H48.2166ZM63.8612 28.6818V15.1818H65.3185V16.7415H65.4975C65.6083 16.571 65.7617 16.3537 65.9577 16.0895C66.158 15.821 66.4435 15.5824 66.8143 15.3736C67.1893 15.1605 67.6964 15.054 68.3356 15.054C69.1623 15.054 69.891 15.2607 70.5217 15.674C71.1523 16.0874 71.6445 16.6733 71.9982 17.4318C72.3519 18.1903 72.5288 19.0852 72.5288 20.1165C72.5288 21.1562 72.3519 22.0575 71.9982 22.8203C71.6445 23.5788 71.1545 24.1669 70.5281 24.5845C69.9016 24.9979 69.1793 25.2045 68.3612 25.2045C67.7305 25.2045 67.2255 25.1001 66.8462 24.8913C66.467 24.6783 66.1751 24.4375 65.9705 24.169C65.766 23.8963 65.6083 23.6705 65.4975 23.4915H65.3697V28.6818H63.8612ZM65.3441 20.0909C65.3441 20.8324 65.4528 21.4865 65.6701 22.0533C65.8874 22.6158 66.2049 23.0568 66.6225 23.3764C67.0401 23.6918 67.5515 23.8494 68.1566 23.8494C68.7873 23.8494 69.3136 23.6832 69.7354 23.3509C70.1616 23.0142 70.4812 22.5625 70.6942 21.9957C70.9116 21.4247 71.0202 20.7898 71.0202 20.0909C71.0202 19.4006 70.9137 18.7784 70.7006 18.2244C70.4918 17.6662 70.1744 17.2251 69.7482 16.9013C69.3263 16.5732 68.7958 16.4091 68.1566 16.4091C67.543 16.4091 67.0273 16.5646 66.6097 16.8757C66.1921 17.1825 65.8768 17.6129 65.6637 18.1669C65.4506 18.7166 65.3441 19.358 65.3441 20.0909ZM74.8299 25V15.1818H76.2873V16.6648H76.3896C76.5685 16.179 76.8924 15.7848 77.3612 15.4822C77.8299 15.1797 78.3583 15.0284 78.9464 15.0284C79.0572 15.0284 79.1957 15.0305 79.3619 15.0348C79.5281 15.0391 79.6538 15.0455 79.739 15.054V16.5881C79.6879 16.5753 79.5707 16.5561 79.3874 16.5305C79.2085 16.5007 79.0188 16.4858 78.8185 16.4858C78.3413 16.4858 77.9151 16.5859 77.5401 16.7862C77.1694 16.9822 76.8754 17.255 76.658 17.6044C76.445 17.9496 76.3384 18.3437 76.3384 18.7869V25H74.8299ZM84.4164 25.2301C83.7942 25.2301 83.2296 25.1129 82.7225 24.8786C82.2154 24.6399 81.8127 24.2969 81.5144 23.8494C81.2161 23.3977 81.0669 22.8523 81.0669 22.2131C81.0669 21.6506 81.1777 21.1946 81.3993 20.8452C81.6209 20.4915 81.9171 20.2145 82.2878 20.0142C82.6586 19.8139 83.0676 19.6648 83.5151 19.5668C83.9668 19.4645 84.4206 19.3835 84.8766 19.3239C85.4732 19.2472 85.9569 19.1896 86.3276 19.1513C86.7026 19.1087 86.9753 19.0384 87.1458 18.9403C87.3205 18.8423 87.4078 18.6719 87.4078 18.429V18.3778C87.4078 17.7472 87.2353 17.2571 86.8901 16.9077C86.5492 16.5582 86.0314 16.3835 85.3368 16.3835C84.6167 16.3835 84.052 16.5412 83.6429 16.8565C83.2338 17.1719 82.9462 17.5085 82.78 17.8665L81.3482 17.3551C81.6039 16.7585 81.9448 16.294 82.3709 15.9616C82.8013 15.625 83.2701 15.3906 83.7772 15.2585C84.2885 15.1222 84.7914 15.054 85.2857 15.054C85.601 15.054 85.9632 15.0923 86.3723 15.169C86.7857 15.2415 87.1841 15.3928 87.5676 15.6229C87.9554 15.853 88.2772 16.2003 88.5328 16.6648C88.7885 17.1293 88.9164 17.7514 88.9164 18.5312V25H87.4078V23.6705H87.3311C87.2289 23.8835 87.0584 24.1115 86.8198 24.3544C86.5811 24.5973 86.2637 24.804 85.8674 24.9744C85.4711 25.1449 84.9874 25.2301 84.4164 25.2301ZM84.6465 23.875C85.2431 23.875 85.7459 23.7578 86.155 23.5234C86.5684 23.2891 86.8794 22.9865 87.0882 22.6158C87.3013 22.245 87.4078 21.8551 87.4078 21.446V20.0653C87.3439 20.142 87.2033 20.2124 86.986 20.2763C86.7729 20.3359 86.5257 20.3892 86.2445 20.4361C85.9675 20.4787 85.6969 20.517 85.4327 20.5511C85.1728 20.581 84.9618 20.6065 84.7999 20.6278C84.4078 20.679 84.0414 20.7621 83.7005 20.8771C83.3638 20.9879 83.0911 21.1562 82.8823 21.3821C82.6777 21.6037 82.5755 21.9062 82.5755 22.2898C82.5755 22.8139 82.7694 23.2102 83.1571 23.4787C83.5492 23.7429 84.0456 23.875 84.6465 23.875ZM91.6697 25V15.1818H93.1271V16.6648H93.2294C93.4084 16.179 93.7322 15.7848 94.201 15.4822C94.6697 15.1797 95.1982 15.0284 95.7862 15.0284C95.897 15.0284 96.0355 15.0305 96.2017 15.0348C96.3679 15.0391 96.4936 15.0455 96.5788 15.054V16.5881C96.5277 16.5753 96.4105 16.5561 96.2273 16.5305C96.0483 16.5007 95.8587 16.4858 95.6584 16.4858C95.1811 16.4858 94.755 16.5859 94.38 16.7862C94.0092 16.9822 93.7152 17.255 93.4979 17.6044C93.2848 17.9496 93.1783 18.3437 93.1783 18.7869V25H91.6697Z" fill="white"/>
<line x1="119" y1="36.5" x2="306" y2="36.5" stroke="white"/>
</svg>
