<svg width="68" height="32" viewBox="0 0 68 32" fill="none" xmlns="http://www.w3.org/2000/svg">
<rect width="68" height="32" fill="#F5F5F5"/>
<rect width="390" height="844" transform="translate(-314 -266)" fill="black"/>
<rect width="68" height="32" fill="black"/>
<circle cx="16" cy="16" r="15" fill="#479BFF"/>
<circle cx="52" cy="16" r="15" fill="#E7E7E7"/>
<path d="M21.1193 14H19.5341C19.4403 13.544 19.2763 13.1435 19.0419 12.7983C18.8118 12.4531 18.5305 12.1634 18.1982 11.929C17.87 11.6903 17.5057 11.5114 17.1051 11.392C16.7045 11.2727 16.2869 11.2131 15.8523 11.2131C15.0597 11.2131 14.3416 11.4134 13.6982 11.8139C13.0589 12.2145 12.5497 12.8047 12.1705 13.5845C11.7955 14.3643 11.608 15.321 11.608 16.4545C11.608 17.5881 11.7955 18.5447 12.1705 19.3246C12.5497 20.1044 13.0589 20.6946 13.6982 21.0952C14.3416 21.4957 15.0597 21.696 15.8523 21.696C16.2869 21.696 16.7045 21.6364 17.1051 21.517C17.5057 21.3977 17.87 21.2209 18.1982 20.9865C18.5305 20.7479 18.8118 20.456 19.0419 20.1108C19.2763 19.7614 19.4403 19.3608 19.5341 18.9091H21.1193C21 19.5781 20.7827 20.1768 20.4673 20.7053C20.152 21.2337 19.7599 21.6832 19.2912 22.054C18.8224 22.4205 18.2962 22.6996 17.7124 22.8913C17.1328 23.0831 16.5128 23.179 15.8523 23.179C14.7358 23.179 13.7429 22.9062 12.8736 22.3608C12.0043 21.8153 11.3203 21.0398 10.8217 20.0341C10.3232 19.0284 10.0739 17.8352 10.0739 16.4545C10.0739 15.0739 10.3232 13.8807 10.8217 12.875C11.3203 11.8693 12.0043 11.0938 12.8736 10.5483C13.7429 10.0028 14.7358 9.73011 15.8523 9.73011C16.5128 9.73011 17.1328 9.82599 17.7124 10.0178C18.2962 10.2095 18.8224 10.4908 19.2912 10.8615C19.7599 11.228 20.152 11.6754 20.4673 12.2038C20.7827 12.728 21 13.3267 21.1193 14Z" fill="white"/>
<path d="M47.1222 9.90909L51.0085 20.929H51.1619L55.0483 9.90909H56.7102L51.9034 23H50.267L45.4602 9.90909H47.1222Z" fill="white"/>
</svg>
