<svg width="120" height="37" viewBox="0 0 120 37" fill="none" xmlns="http://www.w3.org/2000/svg">
<rect width="120" height="37" fill="#F5F5F5"/>
<rect width="390" height="844" transform="translate(-39 -469)" fill="black"/>
<rect x="-25" y="-330" width="357" height="573" rx="5" fill="#252525"/>
<rect width="120" height="37" rx="5" fill="#00CB39"/>
<path d="M31.1222 11.9091L35.0085 22.929H35.1619L39.0483 11.9091H40.7102L35.9034 25H34.267L29.4602 11.9091H31.1222ZM45.7472 25.2045C44.8011 25.2045 43.9851 24.9957 43.299 24.5781C42.6172 24.1562 42.0909 23.5682 41.7202 22.8139C41.3537 22.0554 41.1705 21.1733 41.1705 20.1676C41.1705 19.1619 41.3537 18.2756 41.7202 17.5085C42.0909 16.7372 42.6065 16.1364 43.267 15.706C43.9318 15.2713 44.7074 15.054 45.5938 15.054C46.1051 15.054 46.6101 15.1392 47.1087 15.3097C47.6072 15.4801 48.0611 15.7571 48.4702 16.1406C48.8793 16.5199 49.2053 17.0227 49.4482 17.6491C49.6911 18.2756 49.8125 19.0469 49.8125 19.9631V20.6023H42.2443V19.2983H48.2784C48.2784 18.7443 48.1676 18.25 47.946 17.8153C47.7287 17.3807 47.4176 17.0376 47.0128 16.7862C46.6122 16.5348 46.1392 16.4091 45.5938 16.4091C44.9929 16.4091 44.473 16.5582 44.0341 16.8565C43.5994 17.1506 43.2649 17.5341 43.0305 18.0071C42.7962 18.4801 42.679 18.9872 42.679 19.5284V20.3977C42.679 21.1392 42.8068 21.7678 43.0625 22.2834C43.3224 22.7947 43.6825 23.1847 44.1428 23.4531C44.603 23.7173 45.1378 23.8494 45.7472 23.8494C46.1435 23.8494 46.5014 23.794 46.821 23.6832C47.1449 23.5682 47.424 23.3977 47.6584 23.1719C47.8928 22.9418 48.0739 22.6562 48.2017 22.3153L49.6591 22.7244C49.5057 23.2188 49.2479 23.6534 48.8857 24.0284C48.5234 24.3991 48.076 24.6889 47.5433 24.8977C47.0107 25.1023 46.4119 25.2045 45.7472 25.2045ZM53.6158 19.0938V25H52.1072V15.1818H53.5646V16.7159H53.6925C53.9226 16.2173 54.272 15.8168 54.7408 15.5142C55.2095 15.2074 55.8146 15.054 56.5561 15.054C57.2209 15.054 57.8026 15.1903 58.3011 15.4631C58.7997 15.7315 59.1875 16.1406 59.4645 16.6903C59.7415 17.2358 59.88 17.9261 59.88 18.7614V25H58.3714V18.8636C58.3714 18.0923 58.1712 17.4915 57.7706 17.0611C57.37 16.6264 56.8203 16.4091 56.1214 16.4091C55.6399 16.4091 55.2095 16.5135 54.8303 16.7223C54.4553 16.9311 54.1591 17.2358 53.9418 17.6364C53.7244 18.0369 53.6158 18.5227 53.6158 19.0938ZM66.3439 25.2045C65.5257 25.2045 64.8034 24.9979 64.177 24.5845C63.5506 24.1669 63.0605 23.5788 62.7069 22.8203C62.3532 22.0575 62.1763 21.1562 62.1763 20.1165C62.1763 19.0852 62.3532 18.1903 62.7069 17.4318C63.0605 16.6733 63.5527 16.0874 64.1834 15.674C64.8141 15.2607 65.5428 15.054 66.3695 15.054C67.0087 15.054 67.5137 15.1605 67.8844 15.3736C68.2594 15.5824 68.5449 15.821 68.7409 16.0895C68.9412 16.3537 69.0968 16.571 69.2076 16.7415H69.3354V11.9091H70.8439V25H69.3865V23.4915H69.2076C69.0968 23.6705 68.9391 23.8963 68.7346 24.169C68.53 24.4375 68.2381 24.6783 67.8588 24.8913C67.4796 25.1001 66.9746 25.2045 66.3439 25.2045ZM66.5485 23.8494C67.1536 23.8494 67.665 23.6918 68.0826 23.3764C68.5002 23.0568 68.8176 22.6158 69.035 22.0533C69.2523 21.4865 69.361 20.8324 69.361 20.0909C69.361 19.358 69.2544 18.7166 69.0414 18.1669C68.8283 17.6129 68.513 17.1825 68.0953 16.8757C67.6777 16.5646 67.1621 16.4091 66.5485 16.4091C65.9093 16.4091 65.3766 16.5732 64.9505 16.9013C64.5286 17.2251 64.2111 17.6662 63.998 18.2244C63.7892 18.7784 63.6848 19.4006 63.6848 20.0909C63.6848 20.7898 63.7914 21.4247 64.0044 21.9957C64.2218 22.5625 64.5414 23.0142 64.9632 23.3509C65.3894 23.6832 65.9178 23.8494 66.5485 23.8494ZM77.9327 25.2045C76.9867 25.2045 76.1706 24.9957 75.4846 24.5781C74.8027 24.1562 74.2765 23.5682 73.9057 22.8139C73.5392 22.0554 73.356 21.1733 73.356 20.1676C73.356 19.1619 73.5392 18.2756 73.9057 17.5085C74.2765 16.7372 74.7921 16.1364 75.4526 15.706C76.1174 15.2713 76.8929 15.054 77.7793 15.054C78.2907 15.054 78.7956 15.1392 79.2942 15.3097C79.7928 15.4801 80.2466 15.7571 80.6557 16.1406C81.0648 16.5199 81.3908 17.0227 81.6337 17.6491C81.8766 18.2756 81.998 19.0469 81.998 19.9631V20.6023H74.4299V19.2983H80.464C80.464 18.7443 80.3532 18.25 80.1316 17.8153C79.9142 17.3807 79.6032 17.0376 79.1983 16.7862C78.7978 16.5348 78.3248 16.4091 77.7793 16.4091C77.1784 16.4091 76.6586 16.5582 76.2196 16.8565C75.785 17.1506 75.4505 17.5341 75.2161 18.0071C74.9817 18.4801 74.8645 18.9872 74.8645 19.5284V20.3977C74.8645 21.1392 74.9924 21.7678 75.248 22.2834C75.508 22.7947 75.8681 23.1847 76.3283 23.4531C76.7885 23.7173 77.3233 23.8494 77.9327 23.8494C78.329 23.8494 78.687 23.794 79.0066 23.6832C79.3304 23.5682 79.6096 23.3977 79.8439 23.1719C80.0783 22.9418 80.2594 22.6562 80.3873 22.3153L81.8446 22.7244C81.6912 23.2188 81.4334 23.6534 81.0712 24.0284C80.709 24.3991 80.2615 24.6889 79.7289 24.8977C79.1962 25.1023 78.5975 25.2045 77.9327 25.2045ZM84.2928 25V15.1818H85.7502V16.6648H85.8525C86.0314 16.179 86.3553 15.7848 86.824 15.4822C87.2928 15.1797 87.8212 15.0284 88.4093 15.0284C88.5201 15.0284 88.6586 15.0305 88.8248 15.0348C88.9909 15.0391 89.1167 15.0455 89.2019 15.054V16.5881C89.1507 16.5753 89.0336 16.5561 88.8503 16.5305C88.6713 16.5007 88.4817 16.4858 88.2814 16.4858C87.8042 16.4858 87.378 16.5859 87.003 16.7862C86.6323 16.9822 86.3382 17.255 86.1209 17.6044C85.9078 17.9496 85.8013 18.3437 85.8013 18.7869V25H84.2928Z" fill="white"/>
<line x1="117" y1="36.5" x2="304" y2="36.5" stroke="white"/>
</svg>
